REM DIRINDEX 1\2\4,1\2\5,1\2\6,1\3\7,1\3\8
REM DIRNAME cjc128,folder01,folder02,folder03,folder04,folder05,folder06,folder07
TITLE ""
FILE "022_Lesson 18_Output_Stage.mp3" MP3
  TRACK 01 AUDIO
    TITLE "0:"
    INDEX 01 00:00:00
  TRACK 02 AUDIO
    TITLE "8:cjc128_3285"
    INDEX 01 00:00:13
  TRACK 03 AUDIO
    TITLE "0:"
    INDEX 01 00:03:08
  TRACK 04 AUDIO
    TITLE "8:cjc128_3286"
    INDEX 01 00:03:57
  TRACK 05 AUDIO
    TITLE "0:"
    INDEX 01 00:05:59
  TRACK 06 AUDIO
    TITLE "7:cjc128_3287"
    INDEX 01 00:06:43
  TRACK 07 AUDIO
    TITLE "0:"
    INDEX 01 00:09:42
  TRACK 08 AUDIO
    TITLE "8:cjc128_3288"
    INDEX 01 00:13:35
  TRACK 09 AUDIO
    TITLE "0:"
    INDEX 01 00:15:28
  TRACK 10 AUDIO
    TITLE "7:cjc128_3289"
    INDEX 01 00:16:10
  TRACK 11 AUDIO
    TITLE "0:"
    INDEX 01 00:20:02
  TRACK 12 AUDIO
    TITLE "8:cjc128_3290"
    INDEX 01 00:24:25
  TRACK 13 AUDIO
    TITLE "0:"
    INDEX 01 00:26:28
  TRACK 14 AUDIO
    TITLE "7:cjc128_3291"
    INDEX 01 00:27:12
  TRACK 15 AUDIO
    TITLE "0:"
    INDEX 01 00:30:18
  TRACK 16 AUDIO
    TITLE "8:cjc128_3292"
    INDEX 01 00:33:64
  TRACK 17 AUDIO
    TITLE "0:"
    INDEX 01 00:35:66
  TRACK 18 AUDIO
    TITLE "7:cjc128_3293"
    INDEX 01 00:36:50
  TRACK 19 AUDIO
    TITLE "0:"
    INDEX 01 00:40:05
  TRACK 20 AUDIO
    TITLE "8:cjc128_3294"
    INDEX 01 00:43:72
  TRACK 21 AUDIO
    TITLE "0:"
    INDEX 01 00:46:02
  TRACK 22 AUDIO
    TITLE "7:cjc128_3295"
    INDEX 01 00:46:74
  TRACK 23 AUDIO
    TITLE "0:"
    INDEX 01 00:49:23
  TRACK 24 AUDIO
    TITLE "8:cjc128_3296"
    INDEX 01 00:52:04
  TRACK 25 AUDIO
    TITLE "0:"
    INDEX 01 00:54:03
  TRACK 26 AUDIO
    TITLE "7:cjc128_3297"
    INDEX 01 00:54:66
  TRACK 27 AUDIO
    TITLE "0:"
    INDEX 01 00:58:28
  TRACK 28 AUDIO
    TITLE "8:cjc128_3298"
    INDEX 01 01:02:16
  TRACK 29 AUDIO
    TITLE "0:"
    INDEX 01 01:04:09
  TRACK 30 AUDIO
    TITLE "7:cjc128_3299"
    INDEX 01 01:04:66
  TRACK 31 AUDIO
    TITLE "0:"
    INDEX 01 01:07:00
  TRACK 32 AUDIO
    TITLE "8:cjc128_3300"
    INDEX 01 01:09:46
  TRACK 33 AUDIO
    TITLE "0:"
    INDEX 01 01:11:37
  TRACK 34 AUDIO
    TITLE "7:cjc128_3301"
    INDEX 01 01:12:15
  TRACK 35 AUDIO
    TITLE "0:"
    INDEX 01 01:14:68
  TRACK 36 AUDIO
    TITLE "8:cjc128_3302"
    INDEX 01 01:18:02
  TRACK 37 AUDIO
    TITLE "0:"
    INDEX 01 01:20:00
  TRACK 38 AUDIO
    TITLE "7:cjc128_3303"
    INDEX 01 01:20:53
  TRACK 39 AUDIO
    TITLE "0:"
    INDEX 01 01:23:01
  TRACK 40 AUDIO
    TITLE "8:cjc128_3304"
    INDEX 01 01:25:66
  TRACK 41 AUDIO
    TITLE "0:"
    INDEX 01 01:27:36
  TRACK 42 AUDIO
    TITLE "7:cjc128_3305"
    INDEX 01 01:28:24
  TRACK 43 AUDIO
    TITLE "0:"
    INDEX 01 01:31:06
  TRACK 44 AUDIO
    TITLE "8:cjc128_3306"
    INDEX 01 01:34:32
  TRACK 45 AUDIO
    TITLE "0:"
    INDEX 01 01:36:21
  TRACK 46 AUDIO
    TITLE "7:cjc128_3307"
    INDEX 01 01:37:03
  TRACK 47 AUDIO
    TITLE "0:"
    INDEX 01 01:39:43
  TRACK 48 AUDIO
    TITLE "8:cjc128_3308"
    INDEX 01 01:42:43
  TRACK 49 AUDIO
    TITLE "0:"
    INDEX 01 01:44:36
  TRACK 50 AUDIO
    TITLE "7:cjc128_3309"
    INDEX 01 01:45:14
  TRACK 51 AUDIO
    TITLE "0:"
    INDEX 01 01:47:39
  TRACK 52 AUDIO
    TITLE "8:cjc128_3310"
    INDEX 01 01:50:27
  TRACK 53 AUDIO
    TITLE "0:"
    INDEX 01 01:52:24
  TRACK 54 AUDIO
    TITLE "7:cjc128_3311"
    INDEX 01 01:53:08
  TRACK 55 AUDIO
    TITLE "0:"
    INDEX 01 01:55:42
  TRACK 56 AUDIO
    TITLE "8:cjc128_3312"
    INDEX 01 01:58:38
  TRACK 57 AUDIO
    TITLE "0:"
    INDEX 01 02:00:37
  TRACK 58 AUDIO
    TITLE "7:cjc128_3313"
    INDEX 01 02:01:19
  TRACK 59 AUDIO
    TITLE "0:"
    INDEX 01 02:04:17
  TRACK 60 AUDIO
    TITLE "8:cjc128_3314"
    INDEX 01 02:07:45
  TRACK 61 AUDIO
    TITLE "0:"
    INDEX 01 02:09:46
  TRACK 62 AUDIO
    TITLE "7:cjc128_3315"
    INDEX 01 02:10:45
  TRACK 63 AUDIO
    TITLE "0:"
    INDEX 01 02:13:07
  TRACK 64 AUDIO
    TITLE "8:cjc128_3316"
    INDEX 01 02:16:11
  TRACK 65 AUDIO
    TITLE "0:"
    INDEX 01 02:18:08
  TRACK 66 AUDIO
    TITLE "7:cjc128_3317"
    INDEX 01 02:19:09
  TRACK 67 AUDIO
    TITLE "0:"
    INDEX 01 02:21:67
  TRACK 68 AUDIO
    TITLE "8:cjc128_3318"
    INDEX 01 02:25:41
  TRACK 69 AUDIO
    TITLE "0:"
    INDEX 01 02:27:40
  TRACK 70 AUDIO
    TITLE "7:cjc128_3319"
    INDEX 01 02:28:24
  TRACK 71 AUDIO
    TITLE "0:"
    INDEX 01 02:31:65
  TRACK 72 AUDIO
    TITLE "8:cjc128_3320"
    INDEX 01 02:35:63
  TRACK 73 AUDIO
    TITLE "0:"
    INDEX 01 02:37:52
  TRACK 74 AUDIO
    TITLE "7:cjc128_3321"
    INDEX 01 02:38:30
  TRACK 75 AUDIO
    TITLE "0:"
    INDEX 01 02:41:07
  TRACK 76 AUDIO
    TITLE "8:cjc128_3322"
    INDEX 01 02:44:19
  TRACK 77 AUDIO
    TITLE "0:"
    INDEX 01 02:46:14
  TRACK 78 AUDIO
    TITLE "7:cjc128_3323"
    INDEX 01 02:46:69
  TRACK 79 AUDIO
    TITLE "0:"
    INDEX 01 02:49:45
  TRACK 80 AUDIO
    TITLE "8:cjc128_3324"
    INDEX 01 02:53:28
  TRACK 81 AUDIO
    TITLE "0:"
    INDEX 01 02:54:74
  TRACK 82 AUDIO
    TITLE "7:cjc128_3325"
    INDEX 01 02:55:58
  TRACK 83 AUDIO
    TITLE "0:"
    INDEX 01 02:59:13
  TRACK 84 AUDIO
    TITLE "8:cjc128_3326"
    INDEX 01 03:02:72
  TRACK 85 AUDIO
    TITLE "0:"
    INDEX 01 03:04:63
  TRACK 86 AUDIO
    TITLE "7:cjc128_3327"
    INDEX 01 03:05:45
  TRACK 87 AUDIO
    TITLE "0:"
    INDEX 01 03:08:08
  TRACK 88 AUDIO
    TITLE "8:cjc128_3328"
    INDEX 01 03:11:22
  TRACK 89 AUDIO
    TITLE "0:"
    INDEX 01 03:13:21
  TRACK 90 AUDIO
    TITLE "7:cjc128_3329"
    INDEX 01 03:13:69
  TRACK 91 AUDIO
    TITLE "0:"
    INDEX 01 03:16:50
  TRACK 92 AUDIO
    TITLE "8:cjc128_3330"
    INDEX 01 03:20:50
  TRACK 93 AUDIO
    TITLE "0:"
    INDEX 01 03:22:49
  TRACK 94 AUDIO
    TITLE "7:cjc128_3331"
    INDEX 01 03:23:31
  TRACK 95 AUDIO
    TITLE "0:"
    INDEX 01 03:26:02
